<svg id="Layer_1" data-name="Layer 1" xmlns="http://www.w3.org/2000/svg" viewBox="0 0 740.17 1021.15"><defs><style>.cls-1{fill:#fff;stroke:#000;stroke-miterlimit:10;stroke-width:16px;}</style></defs><path class="cls-1" d="M511.9,10c-200,0-362.08,148.66-362.08,332,0,68.56,22.66,132.27,61.49,185.17,72.63,98.94,111.76,215.67,111.76,334.94v.08c0,30.24,26.74,54.77,59.73,54.77h22.07c0,54.2,47.92,98.15,107,98.15s107-43.95,107-98.15H641c33,0,59.73-24.53,59.73-54.77v-.08c0-119.83,38.78-235.53,111.76-334.94C851.32,474.34,874,410.63,874,342.07,874,158.69,711.87,10,511.9,10Zm0,649a40.06,40.06,0,1,1,40-40.06A40,40,0,0,1,511.9,659ZM678.8,504.9a26.29,26.29,0,0,1-37.4,0c-71.4-71.4-187.4-71.4-258.8,0a26.46,26.46,0,0,1-37.4-37.45c92-92.13,241.6-92.13,333.6,0A26.56,26.56,0,0,1,678.8,504.9Zm72.6-143.17a26.86,26.86,0,0,1-18.8,7.81,26.29,26.29,0,0,1-18.7-7.81c-111.5-111.56-292.7-111.56-404.1,0a26.47,26.47,0,0,1-37.4-37.46,338.38,338.38,0,0,1,479,0A26.57,26.57,0,0,1,751.4,361.73Z" transform="translate(-141.82 -2.03)"/></svg>