<svg id="Layer_1" data-name="Layer 1" xmlns="http://www.w3.org/2000/svg" viewBox="0 0 724.17 1024"><defs><style>.cls-1{fill:#000;}</style></defs><path class="cls-1" d="M511.9,0c-200,0-362.08,151.45-362.08,338.27,0,69.84,22.66,134.75,61.49,188.64,72.63,100.8,111.76,219.72,111.76,341.23v.07c0,30.82,26.74,55.8,59.73,55.8h22.07c0,55.22,47.92,100,107,100s107-44.77,107-100H641c33,0,59.73-25,59.73-55.8v-.07c0-122.09,38.78-240,111.76-341.23C851.32,473,874,408.12,874,338.27,874,151.45,711.87,0,511.9,0Zm0,661.17c-22.09,0-40-18.27-40-40.81s17.91-40.8,40-40.8,40,18.27,40,40.8S534,661.17,511.9,661.17Zm166.9-157a25.95,25.95,0,0,1-37.4,0,180.74,180.74,0,0,0-258.8,0,26.12,26.12,0,0,1-37.4,0,27.41,27.41,0,0,1,0-38.15,232.81,232.81,0,0,1,333.6,0A27.41,27.41,0,0,1,678.8,504.15Zm72.6-145.86a26.56,26.56,0,0,1-18.8,8,26,26,0,0,1-18.7-8c-111.5-113.65-292.7-113.65-404.1,0a26.12,26.12,0,0,1-37.4,0,27.41,27.41,0,0,1,0-38.15c64-65.3,149-101.21,239.5-101.21s175.5,35.91,239.5,101.21A27.41,27.41,0,0,1,751.4,358.29Z" transform="translate(-149.82)"/></svg>