<svg id="Layer_1" data-name="Layer 1" xmlns="http://www.w3.org/2000/svg" xmlns:xlink="http://www.w3.org/1999/xlink" viewBox="0 0 513.99 513.99"><defs><style>.cls-1{fill:url(#linear-gradient);}.cls-2{fill:#fff;}</style><linearGradient id="linear-gradient" x1="95.79" y1="57.48" x2="418.2" y2="456.51" gradientUnits="userSpaceOnUse"><stop offset="0" stop-color="#5bd5fa"/><stop offset="1" stop-color="#0055c4"/></linearGradient></defs><title>logo</title><circle class="cls-1" cx="256.99" cy="256.99" r="256.49"/><path class="cls-2" d="M217.17,62C146,75.74,105,139.46,107.93,198.84c2.34,39.52,21.85,74.72,52.83,98.22,27.13,20,45.67,50.15,52.12,83.63l10.06,52.77a39.37,39.37,0,0,0,46.26,31.06l50.07-9.65a39.36,39.36,0,0,0,31.43-46l-10.07-52.77c-6.63-34.45-1.48-68.15,15.71-94.57a128.62,128.62,0,0,0,18.78-95.16c-14-72.09-85.44-118.28-158-104.32ZM331.22,412.6a18.62,18.62,0,0,1-14.89,21.85l-50.07,9.64a18.55,18.55,0,0,1-21.93-14.75L239.83,406l86.8-16.71,4.5,23.35Zm8.1-162.54c-20.44,31.29-26.74,70.35-19.12,110l1.77,9.15-86.81,16.72-1.76-9.15c-7.23-37.57-29.79-72.08-60.78-95.59-27.13-20-42.39-49.67-44.62-82.95-2.18-50,33.62-104.37,93.18-115.84,62.34-12,122,28.08,133.51,87.94A108.83,108.83,0,0,1,339.32,250.06Z" transform="translate(0.5 0.5)"/></svg>
